<svg width="40" height="40" viewBox="0 0 40 40" fill="none" xmlns="http://www.w3.org/2000/svg">
<g clip-path="url(#clip0_2744_487)">
<rect width="40" height="40" fill="#F7F7F7"/>
<path d="M20 40C31.0457 40 40 31.0457 40 20C40 8.95431 31.0457 0 20 0C8.95431 0 0 8.95431 0 20C0 31.0457 8.95431 40 20 40Z" fill="#F7F7F7"/>
<path d="M20 27.1653C24.5078 27.1653 28.162 23.5111 28.162 19.0033C28.162 14.4956 24.5078 10.8413 20 10.8413C15.4923 10.8413 11.838 14.4956 11.838 19.0033C11.838 23.5111 15.4923 27.1653 20 27.1653Z" fill="#322D36"/>
<path fill-rule="evenodd" clip-rule="evenodd" d="M13.7452 27.4717C9.15307 29.7687 6 34.5162 6 40.0002C6 47.7322 12.268 54.0002 20 54.0002C27.732 54.0002 34 47.7322 34 40.0002C34 34.5162 30.8469 29.7687 26.2548 27.4717C24.6355 29.0372 22.4302 30.0004 20 30.0004C17.5698 30.0004 15.3645 29.0372 13.7452 27.4717Z" fill="#322D36"/>
</g>
<defs>
<clipPath id="clip0_2744_487">
<rect width="40" height="40" fill="white"/>
</clipPath>
</defs>
</svg>