<svg width="9" height="9" viewBox="0 0 9 9" fill="none" xmlns="http://www.w3.org/2000/svg">
<path fill-rule="evenodd" clip-rule="evenodd" d="M6.96967 0.46967C7.26256 0.176777 7.73744 0.176777 8.03033 0.46967C8.32322 0.762563 8.32322 1.23744 8.03033 1.53033L5.31066 4.25L8.03033 6.96967C8.32322 7.26256 8.32322 7.73744 8.03033 8.03033C7.73744 8.32322 7.26256 8.32322 6.96967 8.03033L4.25 5.31066L1.53033 8.03033C1.23744 8.32322 0.762563 8.32322 0.46967 8.03033C0.176776 7.73744 0.176776 7.26256 0.46967 6.96967L3.18934 4.25L0.46967 1.53033C0.176777 1.23744 0.176777 0.762563 0.46967 0.46967C0.762563 0.176777 1.23744 0.176777 1.53033 0.46967L4.25 3.18934L6.96967 0.46967Z" fill="#F1F1F1"/>
</svg>
