<svg width="19" height="18" viewBox="0 0 19 18" fill="none" xmlns="http://www.w3.org/2000/svg">
<path d="M18.3364 1C18.3364 0.522 17.9574 0 17.3364 0H1.33643C0.716426 0 0.336426 0.519 0.336426 1V17C0.336426 17.621 0.856426 18 1.33643 18H17.3364C17.8144 18 18.3364 17.621 18.3364 17V1ZM1.83643 1.5H16.8364V16.5H1.83643V1.5ZM8.58643 10.75V14C8.58643 14.53 8.11643 15 7.58643 15H4.33643C3.80643 15 3.33643 14.53 3.33643 14V10.75C3.33643 10.22 3.80643 9.75 4.33643 9.75H7.58643C8.11643 9.75 8.58643 10.22 8.58643 10.75ZM8.58643 4V7.25C8.58643 7.78 8.11643 8.25 7.58643 8.25H4.33643C3.80643 8.25 3.33643 7.78 3.33643 7.25V4C3.33643 3.47 3.80643 3 4.33643 3H7.58643C8.11643 3 8.58643 3.47 8.58643 4ZM15.3364 4V7.25C15.3364 7.78 14.8664 8.25 14.3364 8.25H11.0864C10.5564 8.25 10.0864 7.78 10.0864 7.25V4C10.0864 3.47 10.5564 3 11.0864 3H14.3364C14.8664 3 15.3364 3.47 15.3364 4Z" fill="#322D36"/>
</svg>
