<svg width="16" height="12" viewBox="0 0 16 12" fill="none" xmlns="http://www.w3.org/2000/svg">
<path fill-rule="evenodd" clip-rule="evenodd" d="M13 1C13 1.55228 12.5523 2 12 2H1C0.447715 2 0 1.55228 0 1C0 0.447715 0.447715 0 1 0H12C12.5523 0 13 0.447715 13 1ZM10 6C10 6.55228 9.55229 7 9 7H4C3.44772 7 3 6.55228 3 6C3 5.44772 3.44772 5 4 5H9C9.55228 5 10 5.44772 10 6ZM5 11C5 11.5523 5.44772 12 6 12H7C7.55228 12 8 11.5523 8 11C8 10.4477 7.55228 10 7 10H6C5.44772 10 5 10.4477 5 11Z" fill="#3D3741"/>
</svg>

