<svg width="33" height="32" viewBox="0 0 33 32" fill="none" xmlns="http://www.w3.org/2000/svg">
<path d="M16.9301 0C8.10694 0 0.953369 7.15357 0.953369 15.9767C0.953369 24.7998 8.10694 31.9534 16.9301 31.9534C25.7532 31.9534 32.9068 24.7998 32.9068 15.9767C32.9068 7.15357 25.7532 0 16.9301 0ZM14.2673 21.3023H11.6045V13.3139H14.2673V21.3023ZM12.9359 12.1276C12.1277 12.1276 11.4714 11.4673 11.4714 10.6511C11.4714 9.83632 12.1264 9.17462 12.9359 9.17462C13.7454 9.17462 14.4004 9.83632 14.4004 10.6511C14.4004 11.4673 13.744 12.1276 12.9359 12.1276ZM23.587 21.3023H20.9269V17.4932C20.9269 14.9888 18.2615 15.2005 18.2615 17.4932V21.3023H15.5987V13.3139H18.2615V14.7691C19.4224 12.6176 23.587 12.4578 23.587 16.8301V21.3023Z" fill="#332D37"/>
</svg>
