<svg width="31" height="27" viewBox="0 0 31 27" fill="none" xmlns="http://www.w3.org/2000/svg">
<path d="M8.35417 18.25H4V8.75H8.35417V18.25ZM10.0958 8.75V18.25L17.9333 23V4L10.0958 8.75Z" fill="white"/>
<path d="M20.4667 17.0838C21.9426 16.5621 23 15.1546 23 13.5C23 11.8455 21.9426 10.4379 20.4667 9.91626V17.0838Z" fill="white"/>
<path fill-rule="evenodd" clip-rule="evenodd" d="M20.5 21.7634C24.2294 20.864 27 17.5055 27 13.5C27 9.49446 24.2294 6.13604 20.5 5.23663V7.3135C23.1113 8.15706 25 10.608 25 13.5C25 16.392 23.1113 18.8429 20.5 19.6865V21.7634Z" fill="white"/>
<path d="M3 25L27 1" stroke="black" stroke-width="2"/>
<path d="M4 26L28 2" stroke="white" stroke-width="2"/>
</svg>
