<svg width="22" height="22" viewBox="0 0 22 22" fill="none" xmlns="http://www.w3.org/2000/svg">
<path d="M5.2 15.6976C5.2 16.0521 4.9351 16.3395 4.60833 16.3395H1.59167C1.2649 16.3395 1 16.0521 1 15.6976V8.30238C1 7.94788 1.2649 7.6605 1.59167 7.6605H4.60833C4.9351 7.6605 5.2 7.94788 5.2 8.30238V15.6976ZM6.685 7.47311C6.50807 7.58944 6.4 7.79759 6.4 8.02205V15.978C6.4 16.2024 6.50807 16.4106 6.685 16.5269L9.9634 18.6824C11.2963 19.5588 13 18.5177 13 16.8269V7.17313C13 5.48229 11.2963 4.4412 9.9634 5.31757L6.685 7.47311Z" fill="white"/>
<rect x="16" y="8" width="1" height="8" rx="0.5" fill="white"/>
<rect x="20" y="6" width="1" height="12" rx="0.5" fill="white"/>
<path d="M1.29297 19.5858C0.902444 19.9763 0.902444 20.6095 1.29297 21C1.68349 21.3905 2.31666 21.3905 2.70718 21L21.0001 2.70712C21.3906 2.3166 21.3906 1.68343 21.0001 1.29291C20.6096 0.902383 19.9764 0.902384 19.5859 1.29291L1.29297 19.5858Z" fill="white" stroke="black" stroke-linecap="round"/>
</svg>
