<svg width="110" height="110" viewBox="0 0 110 110" fill="none" xmlns="http://www.w3.org/2000/svg">
<path d="M55 9.16667C80.2725 9.16667 100.833 29.7275 100.833 55C100.833 80.2725 80.2725 100.833 55 100.833C29.7275 100.833 9.16667 80.2725 9.16667 55C9.16667 29.7275 29.7275 9.16667 55 9.16667ZM55 0C24.6263 0 0 24.6263 0 55C0 85.3738 24.6263 110 55 110C85.3738 110 110 85.3738 110 55C110 24.6263 85.3738 0 55 0ZM48.9958 34.4942C48.5421 30.7954 51.4158 27.5 55.1742 27.5C58.7079 27.5 61.4854 30.5983 61.0408 34.1504L57.5713 61.8933C57.4108 63.1904 56.3063 64.1667 55 64.1667C53.6938 64.1667 52.5892 63.1904 52.4242 61.8933L48.9958 34.4942V34.4942ZM55 83.6458C51.8375 83.6458 49.2708 81.0792 49.2708 77.9167C49.2708 74.7542 51.8375 72.1875 55 72.1875C58.1625 72.1875 60.7292 74.7542 60.7292 77.9167C60.7292 81.0792 58.1625 83.6458 55 83.6458Z" fill="white"/>
</svg>
