<svg width="31" height="27" viewBox="0 0 31 27" fill="none" xmlns="http://www.w3.org/2000/svg">
<path fill-rule="evenodd" clip-rule="evenodd" d="M13.9166 3.99976L13.6017 4.06455C12.8823 4.21255 12.1922 4.44288 11.5419 4.7453L12.2022 6.20374C12.2457 6.1835 12.2894 6.16366 12.3333 6.14421C12.5904 6.03038 12.8545 5.92999 13.125 5.84391C13.3834 5.76166 13.6475 5.69247 13.9166 5.63711V3.99976ZM13.9166 21.3624C13.6475 21.307 13.3834 21.2378 13.125 21.1556C12.8545 21.0695 12.5904 20.9691 12.3333 20.8553C12.2894 20.8358 12.2457 20.816 12.2022 20.7958L11.5419 22.2542C12.1922 22.5566 12.8823 22.787 13.6017 22.935L13.9166 22.9997V21.3624ZM9.69084 21.1182L10.6597 19.8491C9.70795 19.1028 8.92855 18.1416 8.39238 17.0372L6.97171 17.7456C7.61537 19.0714 8.55009 20.2238 9.69084 21.1182ZM6.24442 15.6775L7.78698 15.3158C7.65375 14.7322 7.58333 14.1243 7.58333 13.4998C7.58333 12.8752 7.65375 12.2673 7.78698 11.6837L6.24442 11.322C6.08429 12.0233 6 12.7526 6 13.4998C6 14.2469 6.08429 14.9762 6.24442 15.6775ZM6.97171 9.2539L8.39238 9.96231C8.92855 8.85793 9.70795 7.89669 10.6597 7.15038L9.69084 5.88127C8.55009 6.77574 7.61537 7.92811 6.97171 9.2539Z" fill="white"/>
<path fill-rule="evenodd" clip-rule="evenodd" d="M17.0834 22.9998L17.3983 22.935C21.7353 22.0428 25 18.1595 25 13.4998C25 8.84006 21.7353 4.95674 17.3983 4.06455L17.0834 3.99976V5.63711C17.6341 5.7504 18.164 5.92161 18.6667 6.14421C21.4627 7.38227 23.4167 10.2098 23.4167 13.4998C23.4167 16.7898 21.4627 19.6172 18.6667 20.8553C18.164 21.0779 17.6341 21.2491 17.0834 21.3624V22.9998Z" fill="white"/>
<path d="M12.9755 17.1158C12.9755 17.1875 13.0098 17.2546 13.0675 17.296C13.1428 17.35 13.2436 17.35 13.3189 17.296L18.448 13.6204C18.7395 13.4115 18.7395 12.9732 18.448 12.7642L13.3189 9.08865C13.2436 9.03466 13.1428 9.03466 13.0675 9.08865C13.0098 9.13002 12.9755 9.1972 12.9755 9.26885V17.1158Z" fill="white"/>
</svg>
