<svg width="18" height="18" viewBox="0 0 18 18" fill="none" xmlns="http://www.w3.org/2000/svg">
<path d="M17.6205 15.8083L13.7046 11.9231C14.8568 10.3551 15.4095 8.33141 15.0358 6.18412C14.4987 3.0945 11.9763 0.615079 8.86229 0.105291C3.66966 -0.744355 -0.767822 3.67381 0.11189 8.82575C0.633488 11.8768 3.08578 14.3485 6.16088 14.8969C8.27841 15.2753 10.2714 14.781 11.8518 13.7151L15.791 17.6235C16.297 18.1255 17.1144 18.1255 17.6205 17.6235C18.1265 17.1214 18.1265 16.3104 17.6205 15.8083ZM2.32284 8.55541C1.60662 4.81697 4.86077 1.58831 8.62874 2.29892C10.7307 2.70057 12.4278 4.38442 12.8327 6.46991C13.5489 10.2084 10.2947 13.437 6.52677 12.7264C4.42481 12.3247 2.72767 10.6409 2.32284 8.55541Z" fill="#F1F1F1"/>
</svg>
