<svg width="200" height="156" viewBox="0 0 200 156" fill="none" xmlns="http://www.w3.org/2000/svg">
<path d="M112.822 17.8108L24.7045 3.01748L3.68376 128.23L91.8015 143.023L112.822 17.8108Z" fill="white" stroke="#DFDFDF" stroke-width="5" stroke-miterlimit="10"/>
<path d="M24.6965 143.036L112.814 128.243L91.7935 3.03081L3.67577 17.8241L24.6965 143.036Z" fill="white" stroke="#DFDFDF" stroke-width="5" stroke-miterlimit="10"/>
<path d="M102.922 9.53888H13.5707V136.503H102.922V9.53888Z" fill="white" stroke="#DFDFDF" stroke-width="5" stroke-miterlimit="10"/>
<path d="M165.184 17.6357H154.276V20.1357H143.369V17.6357H132.462V20.1357H121.554V17.6357H110.647V20.1357H99.7393V17.6357H88.8319V20.1357H77.9245V17.6357H67.0171V20.1357H64.0634V23.0894H61.5634V33.9968H64.0634V44.9042H61.5634V55.8116H64.0634V66.719H61.5634V77.6265H64.0634V88.5339H61.5634V99.4413H64.0634V110.349H61.5634V121.256H64.0634V124.21H67.0171V126.71H77.9245V124.21H88.8319V126.71H99.7393V124.21H110.647V126.71H121.554V124.21H132.462V126.71H143.369V124.21H154.276V126.71H165.184V124.21H168.138V121.256H170.638V110.349H168.138V99.4413H170.638V88.5339H168.138V77.6265H170.638V66.719H168.138V55.8116H170.638V44.9042H168.138V33.9968H170.638V23.0894H168.138V20.1357H165.184V17.6357Z" fill="white" stroke="#DFDFDF" stroke-width="5" stroke-dasharray="11.24 11.24"/>
<g clip-path="url(#clip0_2099_76)">
<path d="M196.446 135.249L170.053 108.856C175.169 100.79 178.132 91.2355 178.132 81.0016C178.139 51.3261 153.186 27.3518 123.157 28.9556C96.73 30.369 75.3584 51.7542 73.9518 78.1815C72.3549 108.204 96.3223 133.143 126.005 133.143C135.736 133.143 144.842 130.459 152.643 125.804L179.267 152.428C184.01 157.171 191.703 157.171 196.446 152.428C201.189 147.685 201.189 139.999 196.446 135.256V135.249ZM93.4342 84.0324C91.5927 63.6394 108.629 46.61 129.022 48.4584C144.631 49.8718 157.189 62.4501 158.568 78.066C160.362 98.4115 143.387 115.38 123.042 113.586C107.433 112.206 94.8477 99.6482 93.441 84.0392L93.4342 84.0324Z" fill="#C4C2C5"/>
<path d="M111.089 66.3714L140.914 96.1965" stroke="#928F94" stroke-width="8.83404" stroke-miterlimit="10"/>
<path d="M140.914 66.3714L111.089 96.1965" stroke="#928F94" stroke-width="8.83404" stroke-miterlimit="10"/>
</g>
<defs>
<clipPath id="clip0_2099_76">
<rect width="126.123" height="127.101" fill="white" transform="translate(73.8771 28.8811)"/>
</clipPath>
</defs>
</svg>
