<svg width="18" height="19" viewBox="0 0 18 19" fill="none" xmlns="http://www.w3.org/2000/svg">
<path d="M17.5686 16.5127L12.9926 11.9367C14.0479 10.4814 14.5189 8.68326 14.3125 6.89754C14.1062 5.11182 13.2375 3.46847 11.8782 2.29223C10.5188 1.11599 8.7677 0.492436 6.97087 0.544798C5.17403 0.597159 3.46219 1.32162 2.17365 2.57503C0.885104 3.82843 0.113594 5.51958 0.0115795 7.31428C-0.0904347 9.10899 0.484469 10.8767 1.62268 12.268C2.7609 13.6594 4.37961 14.5731 6.15894 14.8288C7.93827 15.0844 9.74876 14.6633 11.2326 13.6487L15.8326 18.2487L17.5686 16.5127ZM2.11064 7.72468C2.11064 6.72174 2.40805 5.74131 2.96526 4.90739C3.52247 4.07347 4.31445 3.4235 5.24106 3.03969C6.16766 2.65588 7.18727 2.55546 8.17095 2.75112C9.15462 2.94679 10.0582 3.42975 10.7674 4.13895C11.4766 4.84814 11.9595 5.7517 12.1552 6.73538C12.3509 7.71906 12.2504 8.73867 11.8666 9.66527C11.4828 10.5919 10.8329 11.3839 9.99894 11.9411C9.16502 12.4983 8.18459 12.7957 7.18164 12.7957C5.83722 12.7941 4.54831 12.2593 3.59766 11.3087C2.64701 10.358 2.11223 9.06911 2.11064 7.72468Z" fill="#343137"/>
</svg>
