<svg width="15" height="16" viewBox="0 0 15 16" fill="none" xmlns="http://www.w3.org/2000/svg">
<path d="M15 8.64641V6.62828L13.2069 5.99137C13.0831 5.5624 12.9119 5.1534 12.7 4.77063L13.5175 3.05284L12.0894 1.62604L10.37 2.44216C9.98687 2.23048 9.57687 2.05939 9.14812 1.93575L8.51 0.144287H6.49L5.85187 1.93575C5.42312 2.05939 5.01312 2.22986 4.63 2.44216L2.91062 1.62542L1.4825 3.05222L2.3 4.77063C2.08812 5.1534 1.91625 5.5624 1.79312 5.99137L0 6.62828V8.64641L1.79312 9.28333C1.91625 9.7123 2.08812 10.1213 2.3 10.5041L1.4825 12.2219L2.91062 13.6493L4.63 12.8325C5.01312 13.0442 5.42312 13.2153 5.85187 13.3389L6.49 15.1304H8.51L9.14812 13.3389C9.5775 13.2153 9.98687 13.0442 10.37 12.8325L12.0894 13.6493L13.5175 12.2219L12.7 10.5041C12.9119 10.1213 13.0831 9.7123 13.2069 9.28333L15 8.64641ZM7.5 10.135C6.11937 10.135 5 9.0167 5 7.63735C5 6.258 6.11937 5.13966 7.5 5.13966C8.88062 5.13966 10 6.258 10 7.63735C10 9.0167 8.88062 10.135 7.5 10.135Z" fill="white"/>
</svg>
