<svg width="15" height="15" viewBox="0 0 17 23" fill="none" xmlns="http://www.w3.org/2000/svg">
<g clip-path="url(#clip0_588_2)">
<mask id="mask0_588_2" style="mask-type:alpha" maskUnits="userSpaceOnUse" x="0" y="0" width="16" height="23">
<path d="M9.86549 0H1.47982C0.665921 0 0 0.678028 0 1.50673V20.592C0 21.4207 0.665921 22.0987 1.47982 22.0987H14.305C15.1189 22.0987 15.7848 21.4207 15.7848 20.592V6.02692L9.86549 0Z" fill="white"/>
</mask>
<g mask="url(#mask0_588_2)">
<path d="M9.86549 0H1.47982C0.665921 0 0 0.678028 0 1.50673V20.592C0 21.4207 0.665921 22.0987 1.47982 22.0987H14.305C15.1189 22.0987 15.7848 21.4207 15.7848 20.592V6.02692L12.3319 3.5157L9.86549 0Z" fill="#333333"/>
</g>
<mask id="mask1_588_2" style="mask-type:alpha" maskUnits="userSpaceOnUse" x="0" y="0" width="16" height="23">
<path d="M9.86549 0H1.47982C0.665921 0 0 0.678028 0 1.50673V20.592C0 21.4207 0.665921 22.0987 1.47982 22.0987H14.305C15.1189 22.0987 15.7848 21.4207 15.7848 20.592V6.02692L9.86549 0Z" fill="#333333"/>
</mask>
<g mask="url(#mask1_588_2)">
<path d="M11.0987 10.0448H4.68617C4.27922 10.0448 3.94626 10.3839 3.94626 10.7982V17.3274C3.94626 17.7417 4.27922 18.0807 4.68617 18.0807H11.0987C11.5057 18.0807 11.8387 17.7417 11.8387 17.3274V10.7982C11.8387 10.3839 11.5057 10.0448 11.0987 10.0448ZM10.8521 15.8206H4.93281V12.3049H10.8521V15.8206Z" fill="white"/>
</g>
<path d="M9.86571 -7.62939e-06V4.52018C9.86571 5.35265 10.5279 6.02691 11.3455 6.02691H15.785L9.86571 -7.62939e-06Z" fill="#928F94"/>
<path d="M9.86571 -7.62939e-06V0.125553L15.6617 6.02691H15.785L9.86571 -7.62939e-06Z" fill="#333333" fill-opacity="0.1"/>
<path d="M1.47982 0C0.66592 0 0 0.678028 0 1.50673V1.63229C0 0.803589 0.66592 0.125561 1.47982 0.125561H9.86549V0H1.47982Z" fill="#333333" fill-opacity="0.2"/>
<path d="M14.3051 21.9731H1.47995C0.666043 21.9731 0.00012207 21.2951 0.00012207 20.4664V20.5919C0.00012207 21.4206 0.666043 22.0987 1.47995 22.0987H14.3051C15.119 22.0987 15.7849 21.4206 15.7849 20.5919V20.4664C15.7849 21.2951 15.119 21.9731 14.3051 21.9731Z" fill="#333333" fill-opacity="0.2"/>
</g>
<defs>
<clipPath id="clip0_588_2">
<rect width="16.0071" height="22.4099" fill="white"/>
</clipPath>
</defs>
</svg>
