<svg width="33" height="32" viewBox="0 0 33 32" fill="none" xmlns="http://www.w3.org/2000/svg">
<path d="M16.8834 0C8.06031 0 0.906738 7.15357 0.906738 15.9767C0.906738 24.7998 8.06031 31.9534 16.8834 31.9534C25.7066 31.9534 32.8601 24.7998 32.8601 15.9767C32.8601 7.15357 25.7066 0 16.8834 0ZM24.9597 12.8413C25.2033 18.2201 21.1918 24.2167 14.0902 24.2167C11.9307 24.2167 9.92159 23.5829 8.22939 22.4979C10.2584 22.7375 12.2835 22.173 13.8905 20.9148C12.2182 20.8842 10.8056 19.7778 10.317 18.2587C10.9175 18.3732 11.5086 18.3399 12.0452 18.1935C10.2065 17.8233 8.93636 16.1671 8.97763 14.395C9.49421 14.6813 10.0827 14.853 10.7098 14.873C9.00692 13.7346 8.52496 11.4859 9.52617 9.76709C11.4114 12.081 14.23 13.6028 17.408 13.7626C16.8502 11.3714 18.6648 9.06678 21.1346 9.06678C22.233 9.06678 23.2275 9.53143 23.9252 10.2743C24.7959 10.1039 25.616 9.7844 26.3536 9.34637C26.0674 10.2397 25.4616 10.988 24.6721 11.462C25.4456 11.3688 26.1832 11.1637 26.8675 10.8588C26.3563 11.6284 25.7092 12.3021 24.9597 12.8413Z" fill="#332D37"/>
</svg>
