<svg width="20" height="15" viewBox="0 0 20 15" fill="none" xmlns="http://www.w3.org/2000/svg">
<path d="M4.2 10.832C4.2 11.1862 3.9351 11.4733 3.60833 11.4733H0.591667C0.264898 11.4733 0 11.1862 0 10.832V3.44362C0 3.08944 0.264898 2.80233 0.591667 2.80233H3.60833C3.9351 2.80233 4.2 3.08944 4.2 3.44362V10.832ZM5.685 2.61511C5.50807 2.73133 5.4 2.93929 5.4 3.16354V11.1121C5.4 11.3363 5.50807 11.5443 5.685 11.6605L8.9634 13.8141C10.2963 14.6896 12 13.6495 12 11.9602V2.31541C12 0.626127 10.2963 -0.413999 8.9634 0.461558L5.685 2.61511Z" fill="white"/>
<rect x="15" y="4" width="1" height="8" rx="0.5" fill="white"/>
<rect x="19" y="2" width="1" height="12" rx="0.5" fill="white"/>
</svg>
