<svg width="33" height="32" viewBox="0 0 33 32" fill="none" xmlns="http://www.w3.org/2000/svg">
<path fill-rule="evenodd" clip-rule="evenodd" d="M16.8368 31.9534C25.6605 31.9534 32.8135 24.8004 32.8135 15.9767C32.8135 7.15301 25.6605 0 16.8368 0C8.01312 0 0.860107 7.15301 0.860107 15.9767C0.860107 24.8004 8.01312 31.9534 16.8368 31.9534ZM26.1565 15.9767C26.1565 10.833 21.9805 6.65695 16.8368 6.65695C11.6931 6.65695 7.51706 10.833 7.51706 15.9767C7.51706 21.1204 11.6931 25.2964 16.8368 25.2964C21.9805 25.2964 26.1565 21.1204 26.1565 15.9767ZM14.8501 19.0833H18.8227C18.4219 20.896 17.7641 22.1922 16.8368 23.5443C15.9693 22.2784 15.2742 20.9938 14.8501 19.0833ZM9.71729 19.0833H13.2642C13.5788 20.6816 14.1496 22.1767 14.9635 23.5226C12.594 22.9448 10.6772 21.2773 9.71729 19.0833ZM20.4094 19.0833H23.9563C23.0049 21.2571 21.0594 22.9129 18.7202 23.5055C19.5589 22.1021 20.1057 20.6272 20.4094 19.0833ZM9.22568 14.4234H13.0794C12.9644 15.4548 12.9505 16.4978 13.0429 17.53H9.22568C9.01831 16.5087 9.01831 15.4431 9.22568 14.4234ZM14.6436 14.4234H19.0293C19.1566 15.454 19.1737 16.4986 19.0704 17.53H14.6024C14.4999 16.4986 14.5154 15.4532 14.6436 14.4234ZM20.5934 14.4234H24.4479C24.6599 15.4734 24.6499 16.532 24.4479 17.53H20.6307C20.7224 16.4978 20.7084 15.4548 20.5934 14.4234ZM9.71729 12.8701C10.6834 10.6621 12.6173 8.98922 15.007 8.42071C14.2459 9.77518 13.6689 11.2842 13.331 12.8701H9.71729ZM14.9231 12.8701C15.3526 11.0652 15.9903 9.7581 16.836 8.38343C17.7113 9.80392 18.3349 11.1258 18.7497 12.8701H14.9231ZM20.3418 12.8701C20.021 11.3572 19.4619 9.8443 18.6751 8.43702C21.0346 9.01951 22.9995 10.6831 23.9563 12.8701H20.3418Z" fill="#332D37"/>
</svg>
