<svg width="1920" height="1080" viewBox="0 0 1920 1080" fill="none" xmlns="http://www.w3.org/2000/svg">
<rect width="1920" height="1080" fill="#0F0F0F"/>
<path d="M517.693 552.587C574.741 552.587 620.987 506.341 620.987 449.293C620.987 392.246 574.741 346 517.693 346C460.646 346 414.4 392.246 414.4 449.293C414.4 506.341 460.646 552.587 517.693 552.587Z" fill="#808080"/>
<path d="M639.943 842.422L456.987 1079.99H901.558C926.525 1079.99 940.721 1051.26 925.44 1031.47L779.81 842.422C744.489 796.579 675.264 796.579 639.943 842.422Z" fill="#808080"/>
<path d="M1064.64 645.032L871.079 1036.49C861.142 1056.54 875.755 1080 898.051 1080H1506.37L1291.35 645.032C1244.92 551.174 1111.07 551.174 1064.64 645.032Z" fill="#808080"/>
</svg>
